<svg xmlns="http://www.w3.org/2000/svg" width="1480" height="1020" viewBox="0 0 1480 1020"><defs><linearGradient id="pageBg" x1="0%" y1="0%" x2="100%" y2="100%"><stop offset="0%" stop-color="#FFFFFF"/><stop offset="100%" stop-color="#F8FAFC"/></linearGradient><linearGradient id="heroBand" x1="0%" y1="0%" x2="100%" y2="0%"><stop offset="0%" stop-color="#E0EAFF"/><stop offset="100%" stop-color="#F5F3FF"/></linearGradient><linearGradient id="mainBand" x1="0%" y1="0%" x2="100%" y2="100%"><stop offset="0%" stop-color="#F8FBFF"/><stop offset="100%" stop-color="#F8FFF9"/></linearGradient><marker id="arrow" viewBox="0 0 10 10" refX="9" refY="5" markerWidth="8" markerHeight="8" orient="auto-start-reverse"><path d="M 0 0 L 10 5 L 0 10 z" fill="#64748B"/></marker></defs><rect x="0" y="0" width="1480" height="1020" fill="url(#pageBg)"/><rect x="36" y="34" width="1408" height="952" rx="36" fill="#FFFFFF" stroke="#E2E8F0" stroke-width="1.4"/><rect x="54" y="52" width="1372" height="132" rx="28" fill="url(#heroBand)" stroke="#D8E6F5" stroke-width="1.2"/><text x="72" y="96" font-size="30" font-weight="800" fill="#0F172A">零训练可部署</text><text x="72" y="128" font-size="14" font-weight="600" fill="#64748B">GUIDE: Interpretable GUI Agent Evaluation via Hierarchical Diagnosis</text><rect x="72" y="152" width="520" height="40" rx="20" fill="#FFFFFF" stroke="#C7D2FE" stroke-width="1.2"/><text x="92" y="177" font-size="16" font-weight="700" fill="#3730A3">一句话记住：这意味着它不像一些评测方案那样，要先为每个任务…</text><rect x="66.0" y="204.0" width="266.0" height="132.0" rx="28" fill="#0F172A" opacity="0.05"/><rect x="58.0" y="194.0" width="266.0" height="132.0" rx="28" fill="#FFF7ED" stroke="#FDBA74" stroke-width="1.7"/><rect x="76.0" y="210.0" width="92.0" height="30" rx="15" fill="#FFEDD5" stroke="#EA580C" stroke-width="1.1"/><text x="122.0" y="230.0" text-anchor="middle" font-size="13" font-weight="800" fill="#EA580C">旧方法</text><text x="80.0" y="264.0" font-size="15" font-weight="700" fill="#7C2D12">论文明确说 GUIDE</text><text x="80.0" y="282.0" font-size="15" font-weight="700" fill="#7C2D12">不需要执行…</text><rect x="356.0" y="204.0" width="1070.0" height="400.0" rx="28" fill="#0F172A" opacity="0.05"/><rect x="348.0" y="194.0" width="1070.0" height="400.0" rx="28" fill="url(#mainBand)" stroke="#D7E7DD" stroke-width="1.7"/><rect x="372.0" y="212.0" width="124.0" height="30" rx="15" fill="#DCFCE7" stroke="#059669" stroke-width="1.1"/><text x="434.0" y="232.0" text-anchor="middle" font-size="13" font-weight="800" fill="#059669">核心积木</text><rect x="795.0" y="268.0" width="176.0" height="48" rx="18" fill="#FFFFFF" stroke="#C4B5FD" stroke-width="1.4" stroke-dasharray="6 5"/><text x="813.0" y="288.0" font-size="12" font-weight="800" fill="#6D28D9">反馈</text><text x="813.0" y="304.0" font-size="11" font-weight="700" fill="#7C3AED">一个团队已经有网页代理的</text><text x="813.0" y="318.0" font-size="11" font-weight="700" fill="#7C3AED">离线回…</text><rect x="1156.0" y="230.0" width="228.0" height="138.0" rx="28" fill="#0F172A" opacity="0.05"/><rect x="1148.0" y="220.0" width="228.0" height="138.0" rx="28" fill="#FFFFFF" stroke="#F5C9DA" stroke-width="1.7"/><rect x="1164.0" y="234.0" width="124.0" height="30" rx="15" fill="#FCE7F3" stroke="#DB2777" stroke-width="1.1"/><text x="1226.0" y="254.0" text-anchor="middle" font-size="13" font-weight="800" fill="#DB2777">为什么顺手</text><circle cx="1172.0" cy="284.0" r="4.5" fill="#DB2777"/><text x="1188.0" y="289.0" font-size="13" font-weight="600" fill="#1E293B">这意味着它不像一些评测方案那</text><text x="1188.0" y="308.0" font-size="13" font-weight="600" fill="#1E293B">样，要…</text><circle cx="1172.0" cy="352.0" r="4.5" fill="#DB2777"/><text x="1188.0" y="357.0" font-size="13" font-weight="600" fill="#1E293B">再把结果稳定传到输出。</text><rect x="386.0" y="376.0" width="228.0" height="156.0" rx="26" fill="#0F172A" opacity="0.06"/><rect x="382.0" y="370.0" width="228.0" height="156.0" rx="26" fill="#FFFFFF" stroke="#60A5FA" stroke-width="1.8"/><rect x="400.0" y="386.0" width="76" height="28" rx="14" fill="#DBEAFE" opacity="0.9"/><text x="438.0" y="405.0" text-anchor="middle" font-size="12" font-weight="800" fill="#60A5FA">积木</text><text x="496.0" y="442.0" text-anchor="middle" font-size="22" font-weight="800" fill="#0F172A">输入线索</text><text x="404.0" y="494.0" font-size="13" font-weight="600" fill="#334155">一个团队已经有网页代理</text><text x="404.0" y="512.0" font-size="13" font-weight="600" fill="#334155">的离线回放日…</text><rect x="740.0" y="352.0" width="294.0" height="202.0" rx="26" fill="#0F172A" opacity="0.06"/><rect x="736.0" y="346.0" width="294.0" height="202.0" rx="26" fill="#F0FDF4" stroke="#10B981" stroke-width="1.8"/><rect x="754.0" y="362.0" width="76" height="28" rx="14" fill="#BBF7D0" opacity="0.9"/><text x="792.0" y="381.0" text-anchor="middle" font-size="12" font-weight="800" fill="#10B981">积木</text><text x="883.0" y="418.0" text-anchor="middle" font-size="25" font-weight="800" fill="#0F172A">零训练可部署</text><text x="758.0" y="478.0" font-size="13" font-weight="600" fill="#334155">这意味着它不像一些评测方</text><text x="758.0" y="496.0" font-size="13" font-weight="600" fill="#334155">案那样，要…</text><rect x="1160.0" y="376.0" width="228.0" height="156.0" rx="26" fill="#0F172A" opacity="0.06"/><rect x="1156.0" y="370.0" width="228.0" height="156.0" rx="26" fill="#FFFFFF" stroke="#F59E0B" stroke-width="1.8"/><rect x="1174.0" y="386.0" width="76" height="28" rx="14" fill="#FEF3C7" opacity="0.9"/><text x="1212.0" y="405.0" text-anchor="middle" font-size="12" font-weight="800" fill="#F59E0B">积木</text><text x="1270.0" y="442.0" text-anchor="middle" font-size="22" font-weight="800" fill="#0F172A">结果输出</text><text x="1178.0" y="494.0" font-size="13" font-weight="600" fill="#334155">把结果推到更稳的任务完</text><text x="1178.0" y="512.0" font-size="13" font-weight="600" fill="#334155">成。</text><path d="M 610.0 448.0 C 652.0 448.0, 694.0 447.0, 736.0 447.0" fill="none" stroke="#60A5FA" stroke-width="4" marker-end="url(#arrow)"/><path d="M 1030.0 447.0 C 1072.0 447.0, 1114.0 448.0, 1156.0 448.0" fill="none" stroke="#F59E0B" stroke-width="4" marker-end="url(#arrow)"/><text x="388.0" y="566.0" font-size="13" font-weight="700" fill="#64748B">building block：输入先被接住，再在核心积木里完成关键变化，最后把结果推出去</text><rect x="66.0" y="634.0" width="1364.0" height="320.0" rx="28" fill="#0F172A" opacity="0.05"/><rect x="58.0" y="624.0" width="1364.0" height="320.0" rx="28" fill="#FFFDF8" stroke="#E8D9BE" stroke-width="1.7"/><rect x="82.0" y="642.0" width="126.0" height="30" rx="15" fill="#FEF3C7" stroke="#D97706" stroke-width="1.1"/><text x="145.0" y="662.0" text-anchor="middle" font-size="13" font-weight="800" fill="#D97706">怎么跑起来</text><path d="M 496.0 802.0 C 516.0 802.0, 505.0 802.0, 525.0 802.0" fill="none" stroke="#94A3B8" stroke-width="2.8" marker-end="url(#arrow)"/><path d="M 945.0 802.0 C 965.0 802.0, 954.0 802.0, 974.0 802.0" fill="none" stroke="#94A3B8" stroke-width="2.8" marker-end="url(#arrow)"/><rect x="94.0" y="708.0" width="410.0" height="208.0" rx="28" fill="#0F172A" opacity="0.05"/><rect x="86.0" y="698.0" width="410.0" height="208.0" rx="28" fill="#FFFFFF" stroke="#D7E0EA" stroke-width="1.7"/><rect x="104.0" y="714.0" width="106.0" height="30" rx="15" fill="#DBEAFE" stroke="#2563EB" stroke-width="1.1"/><text x="157.0" y="734.0" text-anchor="middle" font-size="13" font-weight="800" fill="#2563EB">看到输入</text><rect x="104.0" y="752.0" width="374.0" height="92" rx="22" fill="#EFF6FF" stroke="#2563EB" stroke-width="1.2"/><circle cx="158.0" cy="794.0" r="20" fill="#2563EB" opacity="0.28"/><rect x="198.0" y="772.0" width="86" height="46" rx="16" fill="#FFFFFF" stroke="#2563EB" stroke-width="1.5"/><path d="M 290.0 795.0 C 316.0 795.0, 328.0 795.0, 352.0 795.0" fill="none" stroke="#2563EB" stroke-width="3" marker-end="url(#arrow)"/><rect x="360.0" y="768.0" width="92" height="54" rx="18" fill="#FFFFFF" stroke="#2563EB" stroke-width="1.5"/><path d="M 132.0 862.0 L 146.0 850.0 L 162.0 862.0" fill="#FFFFFF" stroke="#CBD5E1" stroke-width="1.1"/><rect x="114.0" y="854.0" width="354.0" height="38" rx="16" fill="#FFFFFF" stroke="#CBD5E1" stroke-width="1.1"/><text x="291.0" y="876.0" text-anchor="middle" font-size="13" font-weight="700" fill="#334155">一个团队已经有网页代理的离线回放日…</text><rect x="543.0" y="708.0" width="410.0" height="208.0" rx="28" fill="#0F172A" opacity="0.05"/><rect x="535.0" y="698.0" width="410.0" height="208.0" rx="28" fill="#FFFFFF" stroke="#D7E0EA" stroke-width="1.7"/><rect x="553.0" y="714.0" width="106.0" height="30" rx="15" fill="#DCFCE7" stroke="#059669" stroke-width="1.1"/><text x="606.0" y="734.0" text-anchor="middle" font-size="13" font-weight="800" fill="#059669">核心变化</text><rect x="553.0" y="752.0" width="374.0" height="92" rx="22" fill="#F0FDF4" stroke="#059669" stroke-width="1.2"/><rect x="595.0" y="776.0" width="72" height="40" rx="14" fill="#FFFFFF" stroke="#059669" stroke-width="1.5"/><path d="M 669.0 796.0 C 699.0 796.0, 707.0 796.0, 739.0 796.0" fill="none" stroke="#059669" stroke-width="3" marker-end="url(#arrow)"/><rect x="747.0" y="762.0" width="120" height="68" rx="22" fill="#059669" opacity="0.20" stroke="#059669" stroke-width="1.6"/><circle cx="807.0" cy="796.0" r="14" fill="#059669" opacity="0.24"/><path d="M 869.0 796.0 C 891.0 796.0, 899.0 796.0, 921.0 796.0" fill="none" stroke="#059669" stroke-width="3" marker-end="url(#arrow)"/><path d="M 581.0 862.0 L 595.0 850.0 L 611.0 862.0" fill="#FFFFFF" stroke="#CBD5E1" stroke-width="1.1"/><rect x="563.0" y="854.0" width="354.0" height="38" rx="16" fill="#FFFFFF" stroke="#CBD5E1" stroke-width="1.1"/><text x="740.0" y="876.0" text-anchor="middle" font-size="13" font-weight="700" fill="#334155">这意味着它不像一些评测方案那样，要…</text><rect x="992.0" y="708.0" width="410.0" height="208.0" rx="28" fill="#0F172A" opacity="0.05"/><rect x="984.0" y="698.0" width="410.0" height="208.0" rx="28" fill="#FFFFFF" stroke="#D7E0EA" stroke-width="1.7"/><rect x="1002.0" y="714.0" width="106.0" height="30" rx="15" fill="#FCE7F3" stroke="#DB2777" stroke-width="1.1"/><text x="1055.0" y="734.0" text-anchor="middle" font-size="13" font-weight="800" fill="#DB2777">得到结果</text><rect x="1002.0" y="752.0" width="374.0" height="92" rx="22" fill="#FFF1F2" stroke="#DB2777" stroke-width="1.2"/><rect x="1050.0" y="772.0" width="90" height="52" rx="18" fill="#FFFFFF" stroke="#DB2777" stroke-width="1.5"/><path d="M 1144.0 798.0 C 1172.0 798.0, 1186.0 798.0, 1212.0 798.0" fill="none" stroke="#DB2777" stroke-width="3" marker-end="url(#arrow)"/><rect x="1222.0" y="770.0" width="86" height="56" rx="18" fill="#FFFFFF" stroke="#DB2777" stroke-width="1.5"/><circle cx="1336.0" cy="792.0" r="18" fill="#DB2777" opacity="0.18"/><path d="M 1328.0 792.0 L 1336.0 802.0 L 1350.0 780.0" fill="none" stroke="#DB2777" stroke-width="4" stroke-linecap="round" stroke-linejoin="round"/><path d="M 1030.0 862.0 L 1044.0 850.0 L 1060.0 862.0" fill="#FFFFFF" stroke="#CBD5E1" stroke-width="1.1"/><rect x="1012.0" y="854.0" width="354.0" height="38" rx="16" fill="#FFFFFF" stroke="#CBD5E1" stroke-width="1.1"/><text x="1189.0" y="876.0" text-anchor="middle" font-size="13" font-weight="700" fill="#334155">输出更稳、更可执行的结果。</text><text x="72" y="972" font-size="14" font-weight="600" fill="#64748B">图示：这意味着它不像一些评测方案那样，要先为每个任务写规则，或者还得真的把任务在环境里重放一遍。对于工程团队来说，GUIDE 更像一个插上就能用的评测器：只要你能拿到任务描述、动作日志和截图轨迹，就能开始做更细的质量分析。它的门槛低，适合先接入现有代理流水线做观测。</text></svg>